<svg height="368pt" viewBox="0 0 368 368" width="368pt" xmlns="http://www.w3.org/2000/svg"><path d="m367.894531 22.992188c-.535156-12.761719-11.007812-22.992188-23.894531-22.992188h-320c-12.886719 0-23.359375 10.230469-23.894531 22.992188-.0156252.144531-.0351565.289062-.0507815.441406 0 .191406-.0546875.375-.0546875.566406v320c0 13.230469 10.769531 24 24 24h320c13.230469 0 24-10.769531 24-24v-320c0-.191406-.054688-.375-.054688-.566406-.007812-.152344-.023437-.296875-.050781-.441406zm-343.894531-6.992188h320c2.894531 0 5.328125 1.632812 6.726562 3.945312l-166.726562 90.941407-166.726562-90.941407c1.398437-2.3125 3.832031-3.945312 6.726562-3.945312zm-8 328v-306.519531l164.167969 89.542969c1.191406.648437 2.511719.976562 3.832031.976562s2.640625-.328125 3.832031-.976562l164.167969-89.542969v61.777343l-167.910156 91.574219-108.121094-61.785156c-2.472656-1.40625-5.503906-1.398437-7.984375.023437-2.464844 1.441407-3.984375 4.082032-3.984375 6.929688v216h-40c-4.40625 0-8-3.59375-8-8zm272-191.617188v199.617188h-208v-202.214844l100.03125 57.160156c2.410156 1.375 5.359375 1.40625 7.800781.078126zm56 199.617188h-40v-208.34375l48-26.183594v226.527344c0 4.40625-3.59375 8-8 8zm0 0"/></svg>